<svg width="900" height="1000" xmlns="http://www.w3.org/2000/svg" xmlns:svg="http://www.w3.org/2000/svg">
 <defs>
  <pattern height="10" id="pattern" patternTransform="rotate(45 50 50)" patternUnits="userSpaceOnUse" width="8">
   <line id="pattern_svg_2" stroke="#a6a6a6" stroke-width="7px" y2="10"/>
  </pattern>
 </defs>
 <g class="layer" display="none" id="adjacent-lands">
  <title>Thửa liền kề</title>
  <g id="svg_1" transform="translate(240, 240)">
   <svg height="420" id="svg_2" preserveAspectRatio="xMinYMin slice" width="420">
    <path d="m40.557,1099.883l-35.946,-1323.215l-61.291,-2105.767l288.501,38.632l62.024,2130.516l1139.93,-26.824l113.231,-1541.807l71.404,9.437l44.859,5.94l49.836,6.586l42.712,5.644l42.718,5.646l38.941,5.156l35.58,4.805l35.587,4.798l67.927,9.164l29.181,3.928l42.337,5.717l25.188,3.405l71.166,9.595l4.576,0.617l57.233,9.38l7.333,-46.898l52.098,7.383l80.273,6.658l98.653,8.18l318.192,26.394l-0.683,7.555l17.022,88.368l4.008,20.806l1.831,0.208l3.203,28.549l12.152,108.182l-141.062,-10.578l-23.098,19.872l-34.308,457.99l-51.796,689.107l33.166,37.706l88.547,4.719l24.613,2.19l-21.151,77.286l-2.938,10.73l2.622,17.596l0.093,0.193l7.829,16.555l-19.521,54.577l-145.263,406.2l-402.718,1126.226l-239.355,-61.291l-3.024,18.587l-5.623,34.625l12.913,3.907l250.689,78.664l93.294,29.274l30.322,9.516l9.61,-39.012l4.007,-16.253l46.145,-10.773l-29.094,128.587l-6.335,28.031l-6.342,28.017l-8.072,35.702l-21.553,95.284l-3.965,17.509l-3.167,31.22l-48.867,-20.755l3.914,-18.997l0.223,-0.905l-37.339,-5.71l-26.681,-4.079l-15.65,-2.392l-18.724,-7.95l-33.051,-14.041l-33.052,-14.041l-99.686,-42.345l-61.701,-26.207l-59.539,-25.288l-55.574,-23.6l-3.139,-1.336l-65.679,-27.895l-8.82,-3.598l-32.29,-12.525l-5.94,-2.306l-27.801,-9.897l-10.824,-3.857l-38.991,-12.668l-39.336,-11.571l-39.644,-10.45l-39.933,-9.351l-31.564,-6.463l-8.597,-1.76l-40.385,-7.096l-19.693,-2.894l-20.878,-3.067l-22.358,-2.65l-18.357,-2.177l-40.837,-3.676l-40.923,-2.536l-40.981,-1.386l-41.002,-0.237l-40.995,0.912l-40.951,2.054l-40.88,3.211l-40.766,4.417l-0.531,0l-40.104,5.422l-40.471,6.622l-41.455,8.015l-385.811,84.863l-374.463,82.141l-349.103,76.668l0,-486.518l329.841,-65.435l-5.853,-215.367" fill="none" id="svg_3" stroke="#000" stroke-width="1px" transform="translate(-240, -240)"/>
    <path d="m1522.156,-216.344l19.924,20.864l538.78,-15.348l23.148,-22.099l33.367,-443.906l-19.872,-23.105l-520.057,-38.969l-38.51,33.13l-36.78,489.433" fill="none" id="svg_4" stroke="#000" stroke-width="1px" transform="translate(-240, -240)"/>
    <path d="m1016.033,378.033l-12.131,-428.867l-22.142,-20.921l-387.649,11.024l12.748,450.42l5.767,202.756l387.649,-11.025l20.922,-22.149l-5.164,-181.238" fill="none" id="svg_5" stroke="#000" stroke-width="1px" transform="translate(-240, -240)"/>
    <path d="m356.889,1451.673l244.088,-6.938l20.928,-22.15l-19.923,-700.455l-22.149,-20.921l-244.088,6.938l-20.928,22.149l19.922,700.455l22.15,20.922" fill="none" id="svg_6" stroke="#000" stroke-width="1px" transform="translate(-240, -240)"/>
    <path d="m709.583,718.999l8.094,285.6l22.142,20.914l571.359,-16.26l20.928,-22.157l-8.101,-285.593l-22.142,-20.921l-571.351,16.268l-20.929,22.149" fill="none" id="svg_7" stroke="#000" stroke-width="1px" transform="translate(-240, -240)"/>
    <path d="m2103.038,528.561l-10.285,-610.472l-19.93,-20.871l-253.381,7.204l-20.921,22.149l17.352,610.155l22.149,20.922l244.088,-6.938l20.928,-22.149" fill="none" id="svg_8" stroke="#000" stroke-width="1px" transform="translate(-240, -240)"/>
    <path d="m589.952,300l-9.186,-324.433l-36.901,-34.869l-215.367,6.126l-34.875,36.909l9.149,323.018l7.312,258.373l36.915,34.876l215.353,-6.126l34.876,-36.923l-7.276,-256.951" fill="none" id="svg_9" stroke="#000" stroke-width="1px" transform="translate(-240, -240)"/>
    <path d="m1860.502,-1432.281l-19.801,-22.932l-0.115,-0.129l-202.756,-15.204l-0.144,0.121l-22.953,19.751l-45.111,601.602l19.873,23.097l202.763,15.204l23.097,-19.872l10.903,-145.479l34.244,-456.159" fill="none" id="svg_10" stroke="#000" stroke-width="1px" transform="translate(-240, -240)"/>
    <path d="m1901.353,-824.15l19.872,23.089l202.741,15.19l23.098,-19.872l45.225,-601.523l-19.865,-23.09l-202.749,-15.19l-23.097,19.873l-45.225,601.523" fill="none" id="svg_11" stroke="#000" stroke-width="1px" transform="translate(-240, -240)"/>
    <path d="m2543.317,-1288.368l6.909,-92.159l-19.872,-23.097l-186.208,-13.963l-23.098,19.873l-45.11,601.602l19.88,23.097l186.208,13.962l23.098,-19.872l38.193,-509.443" fill="none" id="svg_12" stroke="#000" stroke-width="1px" transform="translate(-240, -240)"/>
    <path d="m2440.909,-197.706l22.092,-19.435l32.456,-432.874l-19.873,-23.098l-186.216,-13.962l-21.847,18.81l-1.25,1.07l-32.829,437.924l19.902,22.623l186.531,9.861l1.034,-0.919" fill="none" id="svg_13" stroke="#000" stroke-width="1px" transform="translate(-240, -240)"/>
    <path d="m1587.025,-1560.631l559.443,41.915l3.964,-55.503l-330.516,-60.932l-143.59,3.404l-56.415,14.199l-20.634,25.798l-12.252,31.119" fill="none" id="svg_14" stroke="#000" stroke-width="1px" transform="translate(-240, -240)"/>,
    <path d="m589.952,300l-287.18,6.751l-9.149,-323.018l34.875,-36.909l215.367,-6.126l36.901,34.869l9.186,324.433" fill="none" id="svg_15" stroke="#000" stroke-width="1px" transform="translate(-240, -240)"/></svg>
  </g>
 </g>
 <g class="layer" id="cordinates-table">
  <title>Bảng tọa độ góc ranh</title>
  <g class="layer" id="table" xmlns="http://www.w3.org/2000/svg">
   <text fill="#000" font-size="10px" font-weight="bold" id="svg_16" text-anchor="middle" x="760" y="705">BẢNG LIỆT KÊ TỌA ĐỘ GÓC RANH</text>
   <rect fill="none" height="15" id="header" stroke="#000" width="260" x="635" xmlns="http://www.w3.org/2000/svg" y="710"/>
   <line fill="none" id="svg_17" stroke="#000" x1="635" x2="635" y1="725" y2="807"/>
   <line fill="none" id="svg_18" stroke="#000" x1="675" x2="675" y1="710" y2="807"/>
   <line fill="none" id="svg_19" stroke="#000" x1="745" x2="745" y1="710" y2="807"/>
   <line fill="none" id="svg_20" stroke="#000" x1="825" x2="825" y1="710" y2="807"/>
   <line fill="none" id="svg_21" stroke="#000" x1="895" x2="895" y1="725" y2="807"/>
   <line fill="none" id="svg_22" stroke="#000" x1="635" x2="895" y1="807" y2="807"/>
   <text fill="#000" font-size="10px" id="svg_23" text-anchor="middle" x="655" y="720">
    <tspan id="svg_24" x="655" y="720">Điểm</tspan>
    <tspan id="svg_25" x="710" y="720">X (m)</tspan>
    <tspan id="svg_26" x="785" y="720">Y (m)</tspan>
    <tspan id="svg_27" x="860" y="720">Cạnh (m)</tspan>
   </text>
   <text font-size="10px" id="svg_28" text-anchor="middle" x="645" y="732">
    <tspan fill="#000" id="svg_29" text-anchor="start" x="645" y="737">1</tspan>
    <tspan id="svg_30" x="710" y="737">549143.02</tspan>
    <tspan id="svg_31" x="785" y="737">1134152.36</tspan>
    <tspan id="svg_32" x="860" y="737">35.79</tspan>
   </text>
   <text font-size="10px" id="svg_33" text-anchor="middle" x="645" y="732">
    <tspan fill="#000" id="svg_34" text-anchor="start" x="645" y="749">2</tspan>
    <tspan id="svg_35" x="710" y="749">549144.03</tspan>
    <tspan id="svg_36" x="785" y="749">1134116.59</tspan>
    <tspan id="svg_37" x="860" y="749">7.07</tspan>
   </text>
   <text font-size="10px" id="svg_38" text-anchor="middle" x="645" y="732">
    <tspan fill="#000" id="svg_39" text-anchor="start" x="645" y="761">3</tspan>
    <tspan id="svg_40" x="710" y="761">549139.17</tspan>
    <tspan id="svg_41" x="785" y="761">1134111.44</tspan>
    <tspan id="svg_42" x="860" y="761">30.00</tspan>
   </text>
   <text font-size="10px" id="svg_43" text-anchor="middle" x="645" y="732">
    <tspan fill="#000" id="svg_44" text-anchor="start" x="645" y="773">4</tspan>
    <tspan id="svg_45" x="710" y="773">549109.19</tspan>
    <tspan id="svg_46" x="785" y="773">1134110.59</tspan>
    <tspan id="svg_47" x="860" y="773">7.07</tspan>
   </text>
   <text font-size="10px" id="svg_48" text-anchor="middle" x="645" y="732">
    <tspan fill="#000" id="svg_49" text-anchor="start" x="645" y="785">5</tspan>
    <tspan id="svg_50" x="710" y="785">549104.05</tspan>
    <tspan id="svg_51" x="785" y="785">1134115.45</tspan>
    <tspan id="svg_52" x="860" y="785">35.99</tspan>
   </text>
   <text font-size="10px" id="svg_53" text-anchor="middle" x="645" y="732">
    <tspan fill="#000" id="svg_54" text-anchor="start" x="645" y="797">6</tspan>
    <tspan id="svg_55" x="710" y="797">549103.03</tspan>
    <tspan id="svg_56" x="785" y="797">1134151.42</tspan>
    <tspan id="svg_57" x="860" y="797">40.00</tspan>
   </text>
  </g>
 </g>
 <g class="layer" id="land-info" xmlns="http://www.w3.org/2000/svg">
  <title>Thông tin thửa đất</title>
  <text fill="#4a84e3" font-size="10px" font-weight="bold" id="svg_58" text-anchor="right" x="40" y="40">LÔ ĐẤT SỐ : 172, TỜ BẢN ĐỒ SỐ : 24,
        PHƯỜNG: 9,
        THÀNH PHỐ : VĨNH LONG,
        TỈNH: VĨNH LONG</text>
 </g>
 <g class="layer" id="main-land">
  <title>Thửa chính</title>
  <path d="m589.952,300l7.276,256.951l-34.876,36.923l-215.353,6.126l-36.915,-34.876l-7.312,-258.373l287.18,-6.751" fill="none" id="svg_59" stroke="#000" stroke-width="1px"/>
  <text fill="#000" font-family="serif" font-size="10px" id="svg_60" stroke="#000" stroke-width="0" text-anchor="middle" x="435" xml:space="preserve" y="453">TSC</text>
  <text fill="#000" font-family="serif" font-size="10px" id="svg_61" stroke="#000" stroke-width="0" text-anchor="middle" x="465" xml:space="preserve" y="445">172 (24)</text>
  <line fill="none" id="svg_62" stroke="#000" x1="450" x2="480" y1="450" y2="450"/>
  <text fill="#000" font-family="serif" font-size="10px" id="svg_63" stroke="#000" stroke-width="0" text-anchor="middle" x="465" xml:space="preserve" y="461">1610.5</text>
  <text fill="#000" font-family="serif" font-size="10px" id="svg_64" stroke="#000" stroke-width="0" text-anchor="middle" x="594.95223" xml:space="preserve" y="305">1</text>
  <text fill="#000" font-family="serif" font-size="10px" id="svg_65" stroke="#000" stroke-width="0" text-anchor="middle" x="602.22762" xml:space="preserve" y="561.9513">2</text>
  <text fill="#000" font-family="serif" font-size="10px" id="svg_66" stroke="#000" stroke-width="0" text-anchor="middle" x="567.35206" xml:space="preserve" y="598.87398">3</text>
  <text fill="#000" font-family="serif" font-size="10px" id="svg_67" stroke="#000" stroke-width="0" text-anchor="middle" x="351.99895" xml:space="preserve" y="605">4</text>
  <text fill="#000" font-family="serif" font-size="10px" id="svg_68" stroke="#000" stroke-width="0" text-anchor="middle" x="315.08371" xml:space="preserve" y="570.12443">5</text>
  <text fill="#000" font-family="serif" font-size="10px" id="svg_69" stroke="#000" stroke-width="0" text-anchor="middle" x="307.77238" xml:space="preserve" y="311.75111">6</text>
  <text fill="#000" font-family="serif" font-size="10px" id="svg_70" stroke="#000" stroke-width="0" text-anchor="middle" x="589.58993" xml:space="preserve" y="424.47565">35.79</text>
  <text fill="#000" font-family="serif" font-size="10px" id="svg_71" stroke="#000" stroke-width="0" text-anchor="middle" x="575.78984" xml:space="preserve" y="571.41264">7.07</text>
  <text fill="#000" font-family="serif" font-size="10px" id="svg_72" stroke="#000" stroke-width="0" text-anchor="middle" x="450.6755" xml:space="preserve" y="592.93699">30.00</text>
  <text fill="#000" font-family="serif" font-size="10px" id="svg_73" stroke="#000" stroke-width="0" text-anchor="middle" x="324.54133" xml:space="preserve" y="578.56222">7.07</text>
  <text fill="#000" font-family="serif" font-size="10px" id="svg_74" stroke="#000" stroke-width="0" text-anchor="middle" x="302.42805" xml:space="preserve" y="431.93777">35.99</text>
  <text fill="#000" font-family="serif" font-size="10px" id="svg_75" stroke="#000" stroke-width="0" text-anchor="middle" x="442.36231" xml:space="preserve" y="299.37556">40.00</text>
 </g>
</svg>