<svg width="900" height="1000" xmlns="http://www.w3.org/2000/svg" xmlns:svg="http://www.w3.org/2000/svg">
 <defs>
  <pattern height="10" id="pattern" patternTransform="rotate(45 50 50)" patternUnits="userSpaceOnUse" width="8">
   <line id="pattern_svg_2" stroke="#a6a6a6" stroke-width="7px" y2="10"/>
  </pattern>
 </defs>
 <g class="layer" display="none" id="adjacent-lands">
  <title>Thửa liền kề</title>
  <g id="svg_1" transform="translate(240, 240)">
   <svg height="420" id="svg_2" preserveAspectRatio="xMinYMin slice" width="420">
    <path d="m121.17,1250.015l-29.46,-1084.447l-50.231,-1725.79l236.442,31.661l50.832,1746.074l934.234,-21.985l92.8,-1263.594l58.519,7.735l36.764,4.868l40.844,5.397l35.004,4.626l35.01,4.627l31.914,4.226l29.16,3.938l29.165,3.932l55.671,7.51l23.914,3.22l34.699,4.685l20.642,2.79l58.325,7.864l3.749,0.506l46.906,7.687l6.01,-38.436l42.697,6.051l65.789,5.457l80.851,6.704l260.775,21.631l-0.559,6.192l13.95,72.422l3.284,17.052l1.501,0.171l2.626,23.397l9.959,88.661l-115.608,-8.67l-18.93,16.287l-28.118,375.348l-42.45,564.76l27.182,30.902l72.569,3.867l20.172,1.795l-17.335,63.34l-2.407,8.794l2.148,14.421l0.077,0.159l6.416,13.567l-15.999,44.728l-119.051,332.904l-330.048,923.003l-196.165,-50.231l-2.478,15.232l-4.609,28.377l10.583,3.202l205.453,64.47l76.46,23.992l24.851,7.799l7.875,-31.973l3.285,-13.32l37.817,-8.829l-23.844,105.383l-5.191,22.974l-5.198,22.961l-6.616,29.259l-17.664,78.091l-3.249,14.35l-2.595,25.587l-40.049,-17.011l3.208,-15.569l0.182,-0.741l-30.601,-4.68l-21.867,-3.343l-12.826,-1.96l-15.345,-6.516l-27.087,-11.507l-27.088,-11.507l-81.698,-34.704l-50.567,-21.479l-48.796,-20.725l-45.546,-19.341l-2.572,-1.095l-53.828,-22.861l-7.228,-2.949l-26.464,-10.265l-4.868,-1.89l-22.785,-8.111l-8.87,-3.161l-31.955,-10.382l-32.238,-9.483l-32.491,-8.564l-32.727,-7.664l-25.869,-5.297l-7.045,-1.442l-33.098,-5.816l-16.139,-2.372l-17.111,-2.513l-18.323,-2.172l-15.045,-1.784l-33.468,-3.013l-33.539,-2.078l-33.586,-1.136l-33.603,-0.195l-33.598,0.748l-33.562,1.684l-33.503,2.631l-33.41,3.62l-0.435,0l-32.868,4.444l-33.168,5.426l-33.974,6.569l-316.193,69.55l-306.893,67.319l-286.109,62.833l0,-398.727l270.323,-53.627l-4.797,-176.505" fill="none" id="svg_3" stroke="#000" stroke-width="1px" transform="translate(-240, -240)"/>
    <path d="m1335.421,171.295l16.328,17.1l441.56,-12.579l18.97,-18.112l27.347,-363.805l-16.287,-18.935l-426.214,-31.938l-31.561,27.153l-30.143,401.116" fill="none" id="svg_4" stroke="#000" stroke-width="1px" transform="translate(-240, -240)"/>
    <path d="m920.625,658.419l-9.941,-351.48l-18.147,-17.145l-317.7,9.034l10.448,369.144l4.727,166.169l317.699,-9.035l17.146,-18.152l-4.232,-148.535" fill="none" id="svg_5" stroke="#000" stroke-width="1px" transform="translate(-240, -240)"/>
    <path d="m380.421,1538.325l200.043,-5.686l17.152,-18.153l-16.327,-574.06l-18.153,-17.146l-200.043,5.686l-17.152,18.152l16.327,574.061l18.153,17.146" fill="none" id="svg_6" stroke="#000" stroke-width="1px" transform="translate(-240, -240)"/>
    <path d="m669.473,937.859l6.634,234.065l18.146,17.14l468.259,-13.326l17.152,-18.158l-6.639,-234.059l-18.147,-17.146l-468.253,13.332l-17.152,18.152" fill="none" id="svg_7" stroke="#000" stroke-width="1px" transform="translate(-240, -240)"/>
    <path d="m1811.485,781.785l-8.429,-500.314l-16.334,-17.105l-207.66,5.903l-17.146,18.153l14.221,500.055l18.153,17.146l200.043,-5.686l17.152,-18.152" fill="none" id="svg_8" stroke="#000" stroke-width="1px" transform="translate(-240, -240)"/>
    <path d="m571.429,594.467l-7.528,-265.89l-30.243,-28.577l-176.505,5.021l-28.582,30.248l7.499,264.731l5.992,211.751l30.254,28.582l176.493,-5.02l28.583,-30.26l-5.963,-210.586" fill="none" id="svg_9" stroke="#000" stroke-width="1px" transform="translate(-240, -240)"/>
    <path d="m1612.713,-825.231l-16.228,-18.794l-0.094,-0.106l-166.169,-12.46l-0.118,0.099l-18.812,16.187l-36.97,493.045l16.287,18.93l166.175,12.461l18.929,-16.287l8.935,-119.228l28.065,-373.847" fill="none" id="svg_10" stroke="#000" stroke-width="1px" transform="translate(-240, -240)"/>
    <path d="m1646.193,-326.835l16.286,18.923l166.158,12.449l18.929,-16.286l37.065,-492.981l-16.281,-18.923l-166.163,-12.449l-18.93,16.287l-37.064,492.98" fill="none" id="svg_11" stroke="#000" stroke-width="1px" transform="translate(-240, -240)"/>
    <path d="m2172.318,-707.286l5.662,-75.53l-16.287,-18.929l-152.607,-11.443l-18.93,16.287l-36.97,493.045l16.292,18.93l152.608,11.442l18.93,-16.287l31.302,-417.515" fill="none" id="svg_12" stroke="#000" stroke-width="1px" transform="translate(-240, -240)"/>
    <path d="m2088.388,186.57l18.106,-15.928l26.599,-354.764l-16.287,-18.93l-152.613,-11.442l-17.906,15.415l-1.024,0.877l-26.905,358.903l16.31,18.54l152.873,8.082l0.847,-0.753" fill="none" id="svg_13" stroke="#000" stroke-width="1px" transform="translate(-240, -240)"/>
    <path d="m1388.584,-930.42l458.494,34.351l3.249,-45.488l-270.876,-49.937l-117.68,2.79l-46.235,11.637l-16.911,21.142l-10.041,25.505" fill="none" id="svg_14" stroke="#000" stroke-width="1px" transform="translate(-240, -240)"/>,
    <path d="m571.429,594.467l5.963,210.586l-28.583,30.26l-176.493,5.02l-30.254,-28.582l-5.992,-211.751l235.359,-5.533" fill="none" id="svg_15" stroke="#000" stroke-width="1px" transform="translate(-240, -240)"/></svg>
  </g>
 </g>
 <g class="layer" id="cordinates-table">
  <title>Bảng tọa độ góc ranh</title>
  <g class="layer" id="table" xmlns="http://www.w3.org/2000/svg">
   <text fill="#000" font-size="10px" font-weight="bold" id="svg_16" text-anchor="middle" x="760" y="705">BẢNG LIỆT KÊ TỌA ĐỘ GÓC RANH</text>
   <rect fill="none" height="15" id="header" stroke="#000" width="260" x="635" xmlns="http://www.w3.org/2000/svg" y="710"/>
   <line fill="none" id="svg_17" stroke="#000" x1="635" x2="635" y1="725" y2="807"/>
   <line fill="none" id="svg_18" stroke="#000" x1="675" x2="675" y1="710" y2="807"/>
   <line fill="none" id="svg_19" stroke="#000" x1="745" x2="745" y1="710" y2="807"/>
   <line fill="none" id="svg_20" stroke="#000" x1="825" x2="825" y1="710" y2="807"/>
   <line fill="none" id="svg_21" stroke="#000" x1="895" x2="895" y1="725" y2="807"/>
   <line fill="none" id="svg_22" stroke="#000" x1="635" x2="895" y1="807" y2="807"/>
   <text fill="#000" font-size="10px" id="svg_23" text-anchor="middle" x="655" y="720">
    <tspan id="svg_24" x="655" y="720">Điểm</tspan>
    <tspan id="svg_25" x="710" y="720">X (m)</tspan>
    <tspan id="svg_26" x="785" y="720">Y (m)</tspan>
    <tspan id="svg_27" x="860" y="720">Cạnh (m)</tspan>
   </text>
   <text font-size="10px" id="svg_28" text-anchor="middle" x="645" y="732">
    <tspan fill="#000" id="svg_29" text-anchor="start" x="645" y="737">1</tspan>
    <tspan id="svg_30" x="710" y="737">549143.02</tspan>
    <tspan id="svg_31" x="785" y="737">1134152.36</tspan>
    <tspan id="svg_32" x="860" y="737">40.00</tspan>
   </text>
   <text font-size="10px" id="svg_33" text-anchor="middle" x="645" y="732">
    <tspan fill="#000" id="svg_34" text-anchor="start" x="645" y="749">2</tspan>
    <tspan id="svg_35" x="710" y="749">549103.03</tspan>
    <tspan id="svg_36" x="785" y="749">1134151.42</tspan>
    <tspan id="svg_37" x="860" y="749">44.99</tspan>
   </text>
   <text font-size="10px" id="svg_38" text-anchor="middle" x="645" y="732">
    <tspan fill="#000" id="svg_39" text-anchor="start" x="645" y="761">3</tspan>
    <tspan id="svg_40" x="710" y="761">549101.76</tspan>
    <tspan id="svg_41" x="785" y="761">1134196.40</tspan>
    <tspan id="svg_42" x="860" y="761">7.07</tspan>
   </text>
   <text font-size="10px" id="svg_43" text-anchor="middle" x="645" y="732">
    <tspan fill="#000" id="svg_44" text-anchor="start" x="645" y="773">4</tspan>
    <tspan id="svg_45" x="710" y="773">549106.61</tspan>
    <tspan id="svg_46" x="785" y="773">1134201.54</tspan>
    <tspan id="svg_47" x="860" y="773">30.00</tspan>
   </text>
   <text font-size="10px" id="svg_48" text-anchor="middle" x="645" y="732">
    <tspan fill="#000" id="svg_49" text-anchor="start" x="645" y="785">5</tspan>
    <tspan id="svg_50" x="710" y="785">549136.60</tspan>
    <tspan id="svg_51" x="785" y="785">1134202.39</tspan>
    <tspan id="svg_52" x="860" y="785">7.07</tspan>
   </text>
   <text font-size="10px" id="svg_53" text-anchor="middle" x="645" y="732">
    <tspan fill="#000" id="svg_54" text-anchor="start" x="645" y="797">6</tspan>
    <tspan id="svg_55" x="710" y="797">549141.74</tspan>
    <tspan id="svg_56" x="785" y="797">1134197.54</tspan>
    <tspan id="svg_57" x="860" y="797">45.19</tspan>
   </text>
  </g>
 </g>
 <g class="layer" id="land-info" xmlns="http://www.w3.org/2000/svg">
  <title>Thông tin thửa đất</title>
  <text fill="#4a84e3" font-size="10px" font-weight="bold" id="svg_58" text-anchor="right" x="40" y="40">LÔ ĐẤT SỐ : 140, TỜ BẢN ĐỒ SỐ : 24,
        PHƯỜNG: 9,
        THÀNH PHỐ : VĨNH LONG,
        TỈNH: VĨNH LONG</text>
 </g>
 <g class="layer" id="main-land">
  <title>Thửa chính</title>
  <path d="m571.429,594.467l-235.359,5.533l-7.499,-264.731l28.582,-30.248l176.505,-5.021l30.243,28.577l7.528,265.89" fill="none" id="svg_59" stroke="#000" stroke-width="1px"/>
  <text fill="#000" font-family="serif" font-size="10px" id="svg_60" stroke="#000" stroke-width="0" text-anchor="middle" x="435" xml:space="preserve" y="453">TSC</text>
  <text fill="#000" font-family="serif" font-size="10px" id="svg_61" stroke="#000" stroke-width="0" text-anchor="middle" x="465" xml:space="preserve" y="445">140 (24)</text>
  <line fill="none" id="svg_62" stroke="#000" x1="450" x2="480" y1="450" y2="450"/>
  <text fill="#000" font-family="serif" font-size="10px" id="svg_63" stroke="#000" stroke-width="0" text-anchor="middle" x="465" xml:space="preserve" y="461">1978.5</text>
  <text fill="#000" font-family="serif" font-size="10px" id="svg_64" stroke="#000" stroke-width="0" text-anchor="middle" x="576.42908" xml:space="preserve" y="599.4671">1</text>
  <text fill="#000" font-family="serif" font-size="10px" id="svg_65" stroke="#000" stroke-width="0" text-anchor="middle" x="341.06967" xml:space="preserve" y="605">2</text>
  <text fill="#000" font-family="serif" font-size="10px" id="svg_66" stroke="#000" stroke-width="0" text-anchor="middle" x="333.57092" xml:space="preserve" y="340.26924">3</text>
  <text fill="#000" font-family="serif" font-size="10px" id="svg_67" stroke="#000" stroke-width="0" text-anchor="middle" x="362.15333" xml:space="preserve" y="310.0206">4</text>
  <text fill="#000" font-family="serif" font-size="10px" id="svg_68" stroke="#000" stroke-width="0" text-anchor="middle" x="538.65834" xml:space="preserve" y="305">5</text>
  <text fill="#000" font-family="serif" font-size="10px" id="svg_69" stroke="#000" stroke-width="0" text-anchor="middle" x="568.90087" xml:space="preserve" y="333.57666">6</text>
  <text fill="#000" font-family="serif" font-size="10px" id="svg_70" stroke="#000" stroke-width="0" text-anchor="middle" x="449.74938" xml:space="preserve" y="593.23355">40.00</text>
  <text fill="#000" font-family="serif" font-size="10px" id="svg_71" stroke="#000" stroke-width="0" text-anchor="middle" x="328.32029" xml:space="preserve" y="463.63462">44.99</text>
  <text fill="#000" font-family="serif" font-size="10px" id="svg_72" stroke="#000" stroke-width="0" text-anchor="middle" x="338.86212" xml:space="preserve" y="316.14492">7.07</text>
  <text fill="#000" font-family="serif" font-size="10px" id="svg_73" stroke="#000" stroke-width="0" text-anchor="middle" x="441.40583" xml:space="preserve" y="298.5103">30.00</text>
  <text fill="#000" font-family="serif" font-size="10px" id="svg_74" stroke="#000" stroke-width="0" text-anchor="middle" x="544.77961" xml:space="preserve" y="310.28833">7.07</text>
  <text fill="#000" font-family="serif" font-size="10px" id="svg_75" stroke="#000" stroke-width="0" text-anchor="middle" x="563.66498" xml:space="preserve" y="457.52188">45.19</text>
 </g>
</svg>